<?xml version="1.0" encoding="UTF-8"?>
<svg version="1.1" xmlns="http://www.w3.org/2000/svg" width="256" height="256">
    <path d="M0 0 C2.31866984 -0.00321985 4.63733948 -0.00658445 6.95600891 -0.01008606 C11.8032783 -0.01605176 16.65052993 -0.01792861 21.49780273 -0.01733398 C27.66583024 -0.01723254 33.83374218 -0.03087801 40.00174236 -0.04810619 C44.7882793 -0.05930222 49.57478898 -0.06125087 54.36133766 -0.06072426 C56.63319102 -0.06189321 58.90504535 -0.06625288 61.1768856 -0.07405663 C104.57641616 -0.20917908 104.57641616 -0.20917908 119.05078125 13.84765625 C126.48619906 21.73451014 129.99389625 29.89408291 133.23828125 40.16796875 C133.56828125 40.16796875 133.89828125 40.16796875 134.23828125 40.16796875 C134.22087891 41.38033203 134.22087891 41.38033203 134.203125 42.6171875 C134.19410156 43.68582031 134.18507812 44.75445312 134.17578125 45.85546875 C134.15837891 47.43908203 134.15837891 47.43908203 134.140625 49.0546875 C134.13057776 52.02377006 134.13057776 52.02377006 134.73530579 54.27792358 C135.44667139 58.36535703 135.38568281 62.38052911 135.38354492 66.52197266 C135.38690353 67.45778671 135.39026215 68.39360077 135.39372253 69.35777283 C135.40322198 72.4533725 135.40517605 75.54891789 135.40625 78.64453125 C135.40946648 80.8114728 135.41283085 82.97841413 135.41633606 85.14535522 C135.42232709 89.69651796 135.42417631 94.24766172 135.42358398 98.79882812 C135.4234831 104.58011746 135.43705873 110.36128194 135.45435619 116.14254189 C135.46558393 120.6263584 135.46749982 125.11014594 135.46697426 129.59397507 C135.46814117 131.72183024 135.47248889 133.84968649 135.48030663 135.97752762 C135.63421115 182.24892211 135.63421115 182.24892211 119.86328125 198.91796875 C103.44850085 214.46881334 80.01700274 212.4749898 58.984375 212.43359375 C56.55070456 212.43494408 54.11703439 212.43688767 51.68336487 212.43939209 C46.60602222 212.44232545 41.52875038 212.4381032 36.45141602 212.42871094 C29.9771356 212.41731148 23.50302097 212.42389056 17.0287466 212.43585587 C12.01071445 212.44311772 6.99272096 212.44076685 1.97468758 212.43560028 C-0.41128497 212.43427604 -2.79726115 212.43586798 -5.18322945 212.44055939 C-46.64409302 212.50421967 -46.64409302 212.50421967 -61.92578125 198.1328125 C-73.72946309 185.59968965 -76.173123 170.88051142 -76.44140625 154.171875 C-76.47403352 152.72919578 -76.50740792 151.2865333 -76.54147339 149.84388733 C-76.88924545 134.02776695 -76.91244606 118.20723497 -76.88867188 102.38806152 C-76.88605086 99.32491192 -76.89095765 96.26179053 -76.89551163 93.19864464 C-76.91340764 79.16533751 -76.87823252 65.13559339 -76.37890625 51.109375 C-76.34854279 50.11558334 -76.31817932 49.12179169 -76.28689575 48.09788513 C-76.24877777 47.20263626 -76.21065979 46.30738739 -76.17138672 45.38500977 C-76.14076141 44.61238297 -76.11013611 43.83975616 -76.07858276 43.04371643 C-75.76171875 41.16796875 -75.76171875 41.16796875 -73.76171875 39.16796875 C-73.1525532 37.18168489 -72.59816697 35.17841261 -72.07421875 33.16796875 C-68.64163054 21.72180145 -61.46380584 12.86815543 -51.24609375 6.6328125 C-35.4526519 -1.67570062 -17.33819748 0.00568149 0 0 Z M-74.76171875 162.16796875 C-73.76171875 164.16796875 -73.76171875 164.16796875 -73.76171875 164.16796875 Z " fill="#1084DF" transform="translate(98.76171875,23.83203125)"/>
    <path d="M0 0 C4.33303152 2.2412232 6.80693465 5.01409192 9 9.3125 C9.09765625 12.00390625 9.09765625 12.00390625 9 14.3125 C9.78125244 14.29155273 10.56250488 14.27060547 11.36743164 14.24902344 C14.93232174 14.16549817 18.49700541 14.11372311 22.0625 14.0625 C23.29162109 14.02898437 24.52074219 13.99546875 25.78710938 13.9609375 C32.70016662 13.88640319 37.5226244 13.8684449 43 18.3125 C44.88245442 21.30642758 45.24590631 23.5739256 45.22705078 27.08105469 C45.22689972 28.02172791 45.22674866 28.96240112 45.22659302 29.93157959 C45.21627045 30.93900208 45.20594788 31.94642456 45.1953125 32.984375 C45.1924826 34.02192932 45.18965271 35.05948364 45.18673706 36.128479 C45.17554865 39.43993701 45.15044627 42.75112384 45.125 46.0625 C45.11496848 48.30858984 45.10584293 50.55468393 45.09765625 52.80078125 C45.0756137 58.30477991 45.04214932 63.80862058 45 69.3125 C38.94591777 67.58148093 33.51082441 64.69391706 27.9140625 61.8671875 C26.85714203 61.33731232 25.80022156 60.80743713 24.71127319 60.26150513 C21.34728054 58.57392656 17.98611782 56.88079588 14.625 55.1875 C12.34002837 54.03999689 10.05487415 52.89285728 7.76953125 51.74609375 C2.17756465 48.93910499 -3.41209093 46.1275567 -9 43.3125 C-8.9800145 43.98822052 -8.96002899 44.66394104 -8.93943787 45.36013794 C-8.74015493 52.40013746 -8.60452128 59.43933518 -8.50561523 66.48144531 C-8.46038434 69.10840399 -8.39898752 71.73513646 -8.32104492 74.36132812 C-8.21171815 78.13989004 -8.16079924 81.9154565 -8.12109375 85.6953125 C-8.07464218 86.86740265 -8.02819061 88.0394928 -7.98033142 89.24710083 C-7.97537669 97.2697258 -7.97537669 97.2697258 -10.99319458 100.34100342 C-13.42993164 101.94873047 -13.42993164 101.94873047 -15.86683655 103.20553589 C-18.78409449 104.71939074 -19.81515445 106.27633327 -21 109.3125 C-21.35802855 111.64217189 -21.69385926 113.97544343 -22 116.3125 C-26.39570794 116.3997253 -30.79119271 116.45296869 -35.1875 116.5 C-37.05631836 116.53770508 -37.05631836 116.53770508 -38.96289062 116.57617188 C-40.7659668 116.59067383 -40.7659668 116.59067383 -42.60546875 116.60546875 C-43.71043701 116.6211792 -44.81540527 116.63688965 -45.95385742 116.65307617 C-49.47344687 116.25956593 -51.22100665 115.49186422 -54 113.3125 C-56.97939443 109.51335655 -57.36070976 106.68241949 -57.29296875 101.91796875 C-57.28330078 100.71591797 -57.27363281 99.51386719 -57.26367188 98.27539062 C-57.23853516 97.02951172 -57.21339844 95.78363281 -57.1875 94.5 C-57.17396484 93.23478516 -57.16042969 91.96957031 -57.14648438 90.66601562 C-57.11118318 87.54774357 -57.06186819 84.43033958 -57 81.3125 C-55.0082194 80.83439128 -53.0164388 80.35628255 -51.0246582 79.87817383 C-47.00906071 78.75624698 -44.63612989 77.22125698 -42.25 73.8125 C-40.01879007 69.35008014 -39.32622653 65.25350545 -40 60.3125 C-42.25549121 55.88505429 -44.47837678 53.36778328 -49 51.3125 C-50.38411231 50.92880559 -51.77548386 50.57064879 -53.171875 50.234375 C-54.43515625 49.93015625 -55.6984375 49.6259375 -57 49.3125 C-57.11651725 44.93772526 -57.18736 40.56335173 -57.25 36.1875 C-57.28351563 34.95 -57.31703125 33.7125 -57.3515625 32.4375 C-57.46211562 22.1560594 -57.46211562 22.1560594 -55.234375 18.5703125 C-52.21134822 15.51557565 -50.30367974 14.41037069 -45.97558594 14.08544922 C-44.82348633 14.09592285 -43.67138672 14.10639648 -42.484375 14.1171875 C-40.60878906 14.12685547 -40.60878906 14.12685547 -38.6953125 14.13671875 C-37.39335938 14.15347656 -36.09140625 14.17023438 -34.75 14.1875 C-33.43257812 14.19652344 -32.11515625 14.20554687 -30.7578125 14.21484375 C-27.50502538 14.23841467 -24.25260411 14.27131978 -21 14.3125 C-20.88269531 13.22582031 -20.76539063 12.13914062 -20.64453125 11.01953125 C-19.78864149 6.09686834 -18.47322231 4.78572231 -15 1.3125 C-10.33577183 -1.49947295 -5.1478205 -1.7695633 0 0 Z " fill="#FBFEFE" transform="translate(131,65.6875)"/>
    <path d="M0 0 C0.33 0 0.66 0 1 0 C0.98259766 1.21236328 0.98259766 1.21236328 0.96484375 2.44921875 C0.95582031 3.51785156 0.94679687 4.58648437 0.9375 5.6875 C0.92009766 7.27111328 0.92009766 7.27111328 0.90234375 8.88671875 C0.89229651 11.85580131 0.89229651 11.85580131 1.49702454 14.10995483 C2.20839014 18.19738828 2.14740156 22.21256036 2.14526367 26.35400391 C2.14862228 27.28981796 2.1519809 28.22563202 2.15544128 29.18980408 C2.16494073 32.28540375 2.1668948 35.38094914 2.16796875 38.4765625 C2.17118523 40.64350405 2.1745496 42.81044538 2.17805481 44.97738647 C2.18404584 49.52854921 2.18589506 54.07969297 2.18530273 58.63085938 C2.18520185 64.41214871 2.19877748 70.19331319 2.21607494 75.97457314 C2.22730268 80.45838965 2.22921857 84.94217719 2.22869301 89.42600632 C2.22985992 91.55386149 2.23420764 93.68171774 2.24202538 95.80955887 C2.3959299 142.08095336 2.3959299 142.08095336 -13.375 158.75 C-29.7897804 174.30084459 -53.22127851 172.30702105 -74.25390625 172.265625 C-76.68757669 172.26697533 -79.12124686 172.26891892 -81.55491638 172.27142334 C-86.63225903 172.2743567 -91.70953087 172.27013445 -96.78686523 172.26074219 C-103.26114565 172.24934273 -109.73526028 172.25592181 -116.20953465 172.26788712 C-121.2275668 172.27514897 -126.24556029 172.2727981 -131.26359367 172.26763153 C-133.64956622 172.26630729 -136.0355424 172.26789923 -138.4215107 172.27259064 C-179.88237427 172.33625092 -179.88237427 172.33625092 -195.1640625 157.96484375 C-206.96774434 145.4317209 -209.41140425 130.71254267 -209.6796875 114.00390625 C-209.71231477 112.56122703 -209.74568917 111.11856455 -209.77975464 109.67591858 C-210.1275267 93.8597982 -210.15072731 78.03926622 -210.12695312 62.22009277 C-210.12433212 59.15695328 -210.12922876 56.09384214 -210.13382339 53.03070641 C-210.1557377 35.66506544 -209.94490697 18.34560885 -209 1 C-208.67 1 -208.34 1 -208 1 C-206.76169444 6.73465948 -206.895015 12.35079183 -206.94995117 18.18334961 C-206.95623032 19.30129913 -206.96250946 20.41924866 -206.96897888 21.57107544 C-206.98280991 23.99533745 -206.99874112 26.41958819 -207.01653099 28.84382439 C-207.04324395 32.69198837 -207.06106939 36.54009416 -207.07600403 40.38832092 C-207.11866548 51.32905464 -207.16565159 62.26968053 -207.24682617 73.21020508 C-207.29642611 79.90853516 -207.32441926 86.60667087 -207.34057045 93.30517769 C-207.35041245 95.84666394 -207.36753693 98.38813362 -207.39235497 100.92951775 C-207.58098989 120.69556345 -207.14587231 138.8462392 -192.99609375 154.15234375 C-182.51370193 163.85522307 -168.83768739 166.61689443 -154.98046875 166.51757812 C-153.75099518 166.5245874 -152.52152161 166.53159668 -151.25479126 166.53881836 C-147.923859 166.55327388 -144.59393807 166.55007499 -141.26306534 166.53730202 C-137.75112967 166.52706177 -134.23923257 166.53659788 -130.72729492 166.54284668 C-124.83341868 166.55009143 -118.93974397 166.54061947 -113.04589844 166.52148438 C-106.26506108 166.49972157 -99.48470508 166.50677522 -92.70387936 166.52879 C-86.84609626 166.54703522 -80.98845671 166.54945813 -75.13065434 166.53903532 C-71.64776299 166.5328501 -68.16509668 166.53182541 -64.68222046 166.54518127 C-60.79447215 166.55905266 -56.90724817 166.53974215 -53.01953125 166.51757812 C-51.32493271 166.52972351 -51.32493271 166.52972351 -49.59609985 166.54211426 C-36.81064282 166.40810106 -24.33996033 162.73260446 -14.78125 153.96484375 C-3.57287024 142.10821815 -0.48911595 127.62240301 -0.67529297 111.6796875 C-0.67646118 110.52514572 -0.67762939 109.37060394 -0.67883301 108.18107605 C-0.68594887 104.41219284 -0.71409253 100.64377982 -0.7421875 96.875 C-0.75033458 94.23755294 -0.75699385 91.60010091 -0.76223755 88.96264648 C-0.7766387 82.75699182 -0.8054996 76.55150248 -0.84048474 70.34593296 C-0.90644071 58.55664739 -0.94328348 46.76725608 -0.97806168 34.97784424 C-0.99201371 31.11067019 -1.01359911 27.24359599 -1.03634644 23.37646484 C-1.04636766 21.012696 -1.05623334 18.64892649 -1.06591797 16.28515625 C-1.07838058 14.67364937 -1.07838058 14.67364937 -1.09109497 13.02958679 C-1.09405579 12.04021622 -1.0970166 11.05084564 -1.10006714 10.03149414 C-1.10488539 9.17544083 -1.10970364 8.31938751 -1.11466789 7.43739319 C-0.99400072 4.87247873 -0.56514589 2.50157916 0 0 Z " fill="#000001" transform="translate(232,64)"/>
    <path d="M0 0 C13.49313344 6.33719549 26.86757292 12.87019173 40.1875 19.5625 C42.02789904 20.48521705 43.86839345 21.4077439 45.70898438 22.33007812 C50.14041898 24.55120723 54.57057762 26.77486098 59 29 C58 32 58 32 56.31469727 33.08056641 C55.20179321 33.58595947 55.20179321 33.58595947 54.06640625 34.1015625 C53.20547363 34.50141357 52.34454102 34.90126465 51.45751953 35.31323242 C50.50216309 35.74611572 49.54680664 36.17899902 48.5625 36.625 C37.02577365 41.98355279 25.6542497 47.63470439 14.29690552 53.36138916 C12.80601427 54.11292319 11.31476299 54.86374353 9.82310486 55.61375427 C8.4509778 56.30370752 7.07973459 56.99542199 5.70948792 57.68910217 C1.11258736 60 1.11258736 60 0 60 C0 52.08 0 44.16 0 36 C10.2287234 32.59042553 10.2287234 32.59042553 13.8125 31.8125 C14.52019531 31.65394531 15.22789062 31.49539062 15.95703125 31.33203125 C18 31 18 31 22 31 C22 30.34 22 29.68 22 29 C20.906875 28.896875 19.81375 28.79375 18.6875 28.6875 C12.28691789 27.89885685 6.10513355 26.03504452 0 24 C0 16.08 0 8.16 0 0 Z " fill="#F8FDFD" transform="translate(134,128)"/>
    <path d="M0 0 C0.33 0 0.66 0 1 0 C0.98839844 0.80824219 0.97679687 1.61648437 0.96484375 2.44921875 C0.95582031 3.51785156 0.94679687 4.58648437 0.9375 5.6875 C0.92589844 6.74324219 0.91429687 7.79898438 0.90234375 8.88671875 C0.89229651 11.85580131 0.89229651 11.85580131 1.49702454 14.10995483 C2.20839014 18.19738828 2.14740156 22.21256036 2.14526367 26.35400391 C2.15030159 27.75772499 2.15030159 27.75772499 2.15544128 29.18980408 C2.16494073 32.28540375 2.1668948 35.38094914 2.16796875 38.4765625 C2.17118523 40.64350405 2.1745496 42.81044538 2.17805481 44.97738647 C2.18404584 49.52854921 2.18589506 54.07969297 2.18530273 58.63085938 C2.18520185 64.41214871 2.19877748 70.19331319 2.21607494 75.97457314 C2.22730268 80.45838965 2.22921857 84.94217719 2.22869301 89.42600632 C2.22985992 91.55386149 2.23420764 93.68171774 2.24202538 95.80955887 C2.35670038 130.28659923 2.35670038 130.28659923 -1 137 C-1.66 137 -2.32 137 -3 137 C-2.85769192 135.58297487 -2.71099254 134.1663904 -2.5625 132.75 C-2.48128906 131.96109375 -2.40007812 131.1721875 -2.31640625 130.359375 C-2 128 -2 128 -1.48731995 126.1628561 C-0.93719894 123.7212721 -0.88006672 121.53783275 -0.88647461 119.03492737 C-0.8865451 118.03537018 -0.8866156 117.03581299 -0.88668823 116.00596619 C-0.89185455 114.91546463 -0.89702087 113.82496307 -0.90234375 112.70141602 C-0.90380402 111.54818848 -0.90526428 110.39496094 -0.9067688 109.20678711 C-0.91057547 106.70171748 -0.91669275 104.19665055 -0.92483521 101.69159126 C-0.93758102 97.72871503 -0.94425497 93.7658547 -0.94897461 89.80296326 C-0.96101331 80.67438139 -0.98306199 71.5458288 -1.00520325 62.41726685 C-1.02539211 54.05240862 -1.04346066 45.68756027 -1.05341816 37.3226828 C-1.05919613 32.75086666 -1.07277603 28.17910927 -1.08764648 23.60731506 C-1.09127883 21.21420331 -1.09463059 18.82109111 -1.09765625 16.42797852 C-1.10282257 15.33950119 -1.10798889 14.25102386 -1.11331177 13.12956238 C-1.11341751 11.62599686 -1.11341751 11.62599686 -1.11352539 10.09205627 C-1.115746 9.22431359 -1.11796661 8.35657091 -1.12025452 7.462533 C-0.99461113 4.88964844 -0.56697827 2.50961887 0 0 Z " fill="#13315A" transform="translate(232,64)"/>
    <path d="M0 0 C0.33 0 0.66 0 1 0 C2.21907946 5.71131053 2.14067115 11.31765211 2.12939453 17.12670898 C2.13114685 18.23800171 2.13289917 19.34929443 2.13470459 20.4942627 C2.13909964 24.16155568 2.13619314 27.82880029 2.1328125 31.49609375 C2.13348626 34.04907745 2.13445689 36.60206108 2.13571167 39.15504456 C2.1371855 44.50384186 2.13514008 49.8526219 2.13037109 55.20141602 C2.12493219 61.3725697 2.12669038 67.54369033 2.1321975 73.71484321 C2.13729449 79.6660848 2.13673934 85.61731619 2.13381577 91.56855965 C2.13314937 94.09428983 2.13396487 96.62002085 2.13629532 99.14575005 C2.1388394 102.67848813 2.13495628 106.21116309 2.12939453 109.74389648 C2.13141876 110.78463821 2.13344299 111.82537994 2.13552856 112.8976593 C2.12055403 118.04125087 1.89156923 122.93148507 1 128 C0.67 128 0.34 128 0 128 C-0.78616861 106.49282573 -1.16309388 85.01540494 -1.13037109 63.49438477 C-1.12462825 59.67313488 -1.12809161 55.85195403 -1.13382339 52.03070641 C-1.1557377 34.66506544 -0.94490697 17.34560885 0 0 Z " fill="#13335A" transform="translate(23,65)"/>
    <path d="M0 0 C-0.33 0.99 -0.66 1.98 -1 3 C-1.969375 2.979375 -2.93875 2.95875 -3.9375 2.9375 C-6.87465895 2.64381501 -6.87465895 2.64381501 -8 4 C-9.63223456 4.09605864 -11.2686439 4.12187821 -12.90370178 4.12025452 C-14.49603889 4.12231651 -14.49603889 4.12231651 -16.12054443 4.12442017 C-17.29514221 4.12082489 -18.46973999 4.11722961 -19.67993164 4.11352539 C-20.90902756 4.11367142 -22.13812347 4.11381744 -23.40446472 4.1139679 C-26.78448672 4.11338892 -30.16444829 4.10835964 -33.54445958 4.10139394 C-37.07321194 4.09515988 -40.60196503 4.09455656 -44.13072205 4.09336853 C-50.81723119 4.09025537 -57.50372406 4.08204218 -64.19022602 4.07201904 C-71.80074303 4.06085744 -79.4112608 4.05534733 -87.02178395 4.05032361 C-102.68119874 4.03985956 -118.34059727 4.02226041 -134 4 C-134.33 3.34 -134.66 2.68 -135 2 C-134.34916317 1.99576806 -133.69832634 1.99153612 -133.02776718 1.98717594 C-117.1954754 1.88389591 -101.3632308 1.77526209 -85.5310173 1.66066074 C-77.87469756 1.6053698 -70.21837316 1.55189459 -62.56201172 1.50268555 C-55.88915894 1.45979312 -49.21633989 1.41350238 -42.54353929 1.36312145 C-39.00997119 1.33656126 -35.47640961 1.31170925 -31.94280243 1.29092598 C-27.99925781 1.26766798 -24.05579251 1.23682338 -20.11230469 1.20532227 C-18.35256065 1.19668907 -18.35256065 1.19668907 -16.55726624 1.18788147 C-15.48317001 1.17809265 -14.40907379 1.16830383 -13.3024292 1.15821838 C-12.3695747 1.15176583 -11.4367202 1.14531328 -10.47559738 1.1386652 C-6.82829126 0.93436929 -3.70991946 0 0 0 Z " fill="#001132" transform="translate(200,229)"/>
    <path d="M0 0 C2.06134313 3.0920147 2.55725055 5.03872345 3.3125 8.625 C5.99511333 19.70245804 11.95642938 28.9975532 21.625 35.25 C27.4099789 38.51744178 33.60838451 40.29690496 40 42 C40 42.33 40 42.66 40 43 C34.47104905 45.23790872 30.80176232 45.16672811 25.2890625 42.87109375 C13.5260891 36.54116525 5.43851449 27.80010347 1.125 15 C-0.23613409 9.98529546 -0.29655077 5.16218008 0 0 Z " fill="#020710" transform="translate(24,188)"/>
    <path d="M0 0 C0.99 0 1.98 0 3 0 C-0.00874354 11.16402209 -6.30706338 20.53804225 -16 27 C-17.99422795 27.36628677 -19.99453311 27.70131344 -22 28 C-22.66 28.33 -23.32 28.66 -24 29 C-26.125 28.0625 -26.125 28.0625 -28 27 C-27.07058594 26.57589844 -26.14117187 26.15179688 -25.18359375 25.71484375 C-13.55516051 20.26121697 -5.95522803 14.04052122 -0.6875 2 C-0.460625 1.34 -0.23375 0.68 0 0 Z " fill="#000618" transform="translate(228,201)"/>
    <path d="M0 0 C0.33 0.66 0.66 1.32 1 2 C-0.79754533 5.59509066 -4.36803785 6.76301419 -8 8.125 C-10.66004538 8.90084657 -13.27295586 9.51875692 -16 10 C-16.33 10.99 -16.66 11.98 -17 13 C-18.98 13 -20.96 13 -23 13 C-23 13.66 -23 14.32 -23 15 C-24.65 15 -26.3 15 -28 15 C-24.95734003 12.56650328 -21.84835081 10.80796078 -18.359375 9.08203125 C-17.28945312 8.55029297 -16.21953125 8.01855469 -15.1171875 7.47070312 C-14.00601563 6.92349609 -12.89484375 6.37628906 -11.75 5.8125 C-10.06003906 4.97428711 -10.06003906 4.97428711 -8.3359375 4.11914062 C-5.55906084 2.74246872 -2.78038402 1.36957072 0 0 Z " fill="#2A87CC" transform="translate(169,170)"/>
    <path d="M0 0 C0.99 0 1.98 0 3 0 C2 3 2 3 0.95898438 4.81640625 C-0.27009552 7.61500364 -0.28904331 9.88524417 -0.34375 12.9375 C-0.37339844 14.07960938 -0.40304688 15.22171875 -0.43359375 16.3984375 C-0.45550781 17.58695313 -0.47742188 18.77546875 -0.5 20 C-0.54340979 22.35434257 -0.59514295 24.70855028 -0.65625 27.0625 C-0.67494141 28.10535156 -0.69363281 29.14820313 -0.71289062 30.22265625 C-0.99731317 32.974009 -1.58804293 34.64955649 -3 37 C-3.087842 32.52095901 -3.14067447 28.04214276 -3.1875 23.5625 C-3.21263672 22.30244141 -3.23777344 21.04238281 -3.26367188 19.74414062 C-3.32071111 12.46213204 -2.7964395 6.7452176 0 0 Z " fill="#197FD0" transform="translate(28,54)"/>
    <path d="M0 0 C2.06212478 3.09318717 2.67024349 5.22741071 3.5 8.8125 C4.48931568 12.95557329 5.55132285 16.98827866 7 21 C5.109375 20.77734375 5.109375 20.77734375 3 20 C-0.31918252 13.86942035 -0.39027501 6.79367615 0 0 Z " fill="#041429" transform="translate(24,188)"/>
    <path d="M0 0 C0 0.66 0 1.32 0 2 C-2.64 2.33 -5.28 2.66 -8 3 C-8 9.6 -8 16.2 -8 23 C-6.68 23.33 -5.36 23.66 -4 24 C-5.65 24.66 -7.3 25.32 -9 26 C-9 18.08 -9 10.16 -9 2 C-4 0 -4 0 0 0 Z " fill="#D9FBFE" transform="translate(143,162)"/>
    <path d="M0 0 C0.99 0 1.98 0 3 0 C1.40898194 5.93721374 -0.08994657 9.97123821 -5 14 C-5.99 14.495 -5.99 14.495 -7 15 C-5.63408831 11.45756548 -4.09068516 8.07372071 -2.375 4.6875 C-1.70597656 3.36298828 -1.70597656 3.36298828 -1.0234375 2.01171875 C-0.68570313 1.34785156 -0.34796875 0.68398437 0 0 Z " fill="#010F25" transform="translate(228,201)"/>
    <path d="M0 0 C2.475 0.99 2.475 0.99 5 2 C3.68 2.33 2.36 2.66 1 3 C1 9.6 1 16.2 1 23 C3.31 23.33 5.62 23.66 8 24 C8.33 24.66 8.66 25.32 9 26 C5.87709365 25.51421457 3.00419641 25.0013988 0 24 C0 16.08 0 8.16 0 0 Z " fill="#D7F7FD" transform="translate(134,128)"/>
    <path d="M0 0 C0.66 0 1.32 0 2 0 C2 6.93 2 13.86 2 21 C-0.9008692 18.0991308 -0.49891028 14.96116375 -0.6875 11.0625 C-0.73455078 10.33353516 -0.78160156 9.60457031 -0.83007812 8.85351562 C-1.01308396 5.58041124 -1.04585857 3.1375757 0 0 Z " fill="#177ECF" transform="translate(229,62)"/>
    <path d="M0 0 C3.2645028 3.2645028 3.93236055 7.41047299 4.125 11.9375 C4.08375 12.618125 4.0425 13.29875 4 14 C4.99 14.33 5.98 14.66 7 15 C7.7166207 17.31847874 8.38242027 19.65319703 9 22 C9.66 22.66 10.32 23.32 11 24 C10.01 24 9.02 24 8 24 C3.53646527 16.08354218 0.93164765 9.05947026 0 0 Z " fill="#2079C0" transform="translate(25,188)"/>
    <path d="M0 0 C0 0.66 0 1.32 0 2 C-1.72718516 2.96189997 -3.45684058 3.91936508 -5.1875 4.875 C-6.15042969 5.40867188 -7.11335937 5.94234375 -8.10546875 6.4921875 C-15.48079123 10.33412337 -15.48079123 10.33412337 -20 9 C-2 0 -2 0 0 0 Z " fill="#3589CC" transform="translate(191,160)"/>
    <path d="M0 0 C0.99 0.33 1.98 0.66 3 1 C2.2733313 2.03966919 2.2733313 2.03966919 1.53198242 3.1003418 C-0.23553848 6.44581522 -0.42252787 8.63067622 -0.51171875 12.39453125 C-0.54716797 13.59658203 -0.58261719 14.79863281 -0.61914062 16.03710938 C-0.64169922 17.28298828 -0.66425781 18.52886719 -0.6875 19.8125 C-0.72166016 21.07771484 -0.75582031 22.34292969 -0.79101562 23.64648438 C-0.87337129 26.76423445 -0.94256529 29.88170759 -1 33 C-1.33 33 -1.66 33 -2 33 C-2.05813173 28.43755363 -2.09364122 23.87520276 -2.125 19.3125 C-2.14175781 18.01892578 -2.15851563 16.72535156 -2.17578125 15.39257812 C-2.18222656 14.14541016 -2.18867187 12.89824219 -2.1953125 11.61328125 C-2.20578613 10.46641846 -2.21625977 9.31955566 -2.22705078 8.13793945 C-2.00058489 5.00808345 -1.33456032 2.81920095 0 0 Z " fill="#2F87CC" transform="translate(75,82)"/>
    <path d="M0 0 C2.8487391 0.35845062 3.88047592 0.87354699 5.88671875 2.99609375 C6.48097656 3.80175781 7.07523438 4.60742188 7.6875 5.4375 C8.28949219 6.24058594 8.89148438 7.04367188 9.51171875 7.87109375 C11 10 11 10 12 12 C10.0625 11.625 10.0625 11.625 8 11 C7.67 10.34 7.34 9.68 7 9 C6.38125 8.731875 5.7625 8.46375 5.125 8.1875 C2.32848951 6.62474414 1.41475402 4.82950805 0 2 C0 1.34 0 0.68 0 0 Z " fill="#000A1E" transform="translate(28,208)"/>
    <path d="M0 0 C1.98 0 3.96 0 6 0 C5.67 1.65 5.34 3.3 5 5 C3.3603125 5.2165625 3.3603125 5.2165625 1.6875 5.4375 C-1.93122987 5.88288104 -1.93122987 5.88288104 -5 7 C-7.1875 6.0625 -7.1875 6.0625 -9 5 C-7.58461283 4.66127487 -6.16762037 4.32925376 -4.75 4 C-3.56664062 3.7215625 -3.56664062 3.7215625 -2.359375 3.4375 C0 3 0 3 4 3 C4 2.34 4 1.68 4 1 C2.68 0.67 1.36 0.34 0 0 Z " fill="#CBEDF9" transform="translate(152,156)"/>
    <path d="M0 0 C2 2 2 2 2.3125 5.6875 C2.22482384 10.04739633 0.93666181 13.12667637 -1 17 C-2.56902561 13.86194878 -1.56136446 10.73381412 -1.0625 7.375 C-0.96259766 6.66859375 -0.86269531 5.9621875 -0.75976562 5.234375 C-0.51208041 3.48878393 -0.25676129 1.74427916 0 0 Z " fill="#318DD1" transform="translate(90,124)"/>
    <path d="M0 0 C0.33 0 0.66 0 1 0 C0.85923685 1.9587043 0.7122324 3.91696093 0.5625 5.875 C0.48128906 6.96554688 0.40007812 8.05609375 0.31640625 9.1796875 C0 12 0 12 -1 14 C-1.66 14 -2.32 14 -3 14 C-2.58846263 9.02906176 -2.20399168 4.55491614 0 0 Z " fill="#0D2849" transform="translate(232,187)"/>
    <path d="M0 0 C0.33 0.66 0.66 1.32 1 2 C0.67 2.99 0.34 3.98 0 5 C-0.78375 5.144375 -1.5675 5.28875 -2.375 5.4375 C-4.96421018 5.87798925 -4.96421018 5.87798925 -7 7 C-8.32 6.34 -9.64 5.68 -11 5 C-7.37 3.35 -3.74 1.7 0 0 Z " fill="#010F26" transform="translate(211,223)"/>
    <path d="M0 0 C4.95 0 9.9 0 15 0 C15.66 1.98 16.32 3.96 17 6 C15.865625 5.360625 14.73125 4.72125 13.5625 4.0625 C9.09816188 1.80237891 4.95443682 1.22937207 0 1 C0 0.67 0 0.34 0 0 Z " fill="#2984C8" transform="translate(120,64)"/>
    <path d="M0 0 C0.99 0.33 1.98 0.66 3 1 C2 3 2 3 -1 4.4375 C-4.28917058 5.70863827 -4.28917058 5.70863827 -5 9 C-5.99 9.33 -6.98 9.66 -8 10 C-6.56854369 4.98990293 -4.17048478 2.89380576 0 0 Z " fill="#3088CB" transform="translate(118,165)"/>
    <path d="M0 0 C-3.5087188 3.09592835 -6.49197399 4.74194623 -11 6 C-8.60159776 0.46522561 -5.82500047 -0.25888891 0 0 Z " fill="#E0F8FE" transform="translate(187,161)"/>
    <path d="M0 0 C0.66 0.33 1.32 0.66 2 1 C-0.64 3.97 -3.28 6.94 -6 10 C-6.33 9.01 -6.66 8.02 -7 7 C-6.34 6.67 -5.68 6.34 -5 6 C-4.5359375 5.0409375 -4.5359375 5.0409375 -4.0625 4.0625 C-3 2 -3 2 0 0 Z " fill="#010308" transform="translate(224,213)"/>
    <path d="M0 0 C0 0.66 0 1.32 0 2 C-3.3 2.66 -6.6 3.32 -10 4 C-10 2 -10 2 -8.375 0.3125 C-5.22166664 -1.43013159 -3.41580961 -0.8539524 0 0 Z " fill="#318AC9" transform="translate(156,157)"/>
    <path d="M0 0 C4.05281712 1.22527029 7.44360764 2.69880494 11 5 C8.83032311 5.95465783 7.43671207 6.14401212 5.17578125 5.3984375 C3.4315257 4.64129615 1.71372869 3.82390802 0 3 C0 2.01 0 1.02 0 0 Z " fill="#2586CD" transform="translate(146,121)"/>
    <path d="M0 0 C2.02350324 3.03525486 2.32124018 4.19426202 2.625 7.6875 C2.69976563 8.49574219 2.77453125 9.30398437 2.8515625 10.13671875 C2.90054687 10.75160156 2.94953125 11.36648437 3 12 C2.01 12.495 2.01 12.495 1 13 C-0.00496852 9.98509443 -0.10335303 7.95818308 -0.0625 4.8125 C-0.05347656 3.91144531 -0.04445313 3.01039063 -0.03515625 2.08203125 C-0.02355469 1.39496094 -0.01195313 0.70789063 0 0 Z " fill="#09173D" transform="translate(24,188)"/>
    <path d="M0 0 C4.75 0.75 4.75 0.75 7 3 C4.53721199 4.231394 2.7204945 4.07159196 0 4 C0 2.68 0 1.36 0 0 Z " fill="#2285D1" transform="translate(123,110)"/>
    <path d="M0 0 C0 0.66 0 1.32 0 2 C-2.64 2.33 -5.28 2.66 -8 3 C-8 2.34 -8 1.68 -8 1 C-5.10765685 0.17361624 -3.11257569 0 0 0 Z " fill="#C8E9F9" transform="translate(143,162)"/>
    <path d="M0 0 C2.475 0.99 2.475 0.99 5 2 C4.67 2.99 4.34 3.98 4 5 C1.9375 5.6875 1.9375 5.6875 0 6 C0 4.02 0 2.04 0 0 Z " fill="#CFF1FD" transform="translate(188,155)"/>
    <path d="M0 0 C0.66 0 1.32 0 2 0 C2 2 2 2 0.6875 3.4375 C0.130625 3.953125 -0.42625 4.46875 -1 5 C-1.556875 5.556875 -2.11375 6.11375 -2.6875 6.6875 C-3.120625 7.120625 -3.55375 7.55375 -4 8 C-4 4.06830895 -2.60580385 2.83572772 0 0 Z " fill="#CCEFFE" transform="translate(116,67)"/>
    <path d="M0 0 C0.99 0 1.98 0 3 0 C5.125 4.625 5.125 4.625 4 8 C3.67 6.68 3.34 5.36 3 4 C2.34 4 1.68 4 1 4 C0.67 2.68 0.34 1.36 0 0 Z " fill="#1B87DA" transform="translate(224,50)"/>
    <path d="M0 0 C2.64 0 5.28 0 8 0 C8 0.33 8 0.66 8 1 C5.36 1 2.72 1 0 1 C0 0.67 0 0.34 0 0 Z " fill="#2676D2" transform="translate(184,23)"/>
    <path d="M0 0 C2.31 0 4.62 0 7 0 C7 0.33 7 0.66 7 1 C4.69 1 2.38 1 0 1 C0 0.67 0 0.34 0 0 Z " fill="#2074D0" transform="translate(65,23)"/>
    <path d="M0 0 C1 4 1 4 1 4 Z " fill="#4182BF" transform="translate(24,59)"/>
    <path d="M0 0 C4 1 4 1 4 1 Z " fill="#2E6FA1" transform="translate(193,24)"/>
    <path d="M0 0 C4 1 4 1 4 1 Z " fill="#4677A7" transform="translate(59,24)"/>
    <path d="" fill="#3C88CC" transform="translate(0,0)"/>
    <path d="" fill="#238AE1" transform="translate(0,0)"/>
    <path d="M0 0 C3 1 3 1 3 1 Z " fill="#2180DB" transform="translate(198,25)"/>
    <path d="" fill="#298BDF" transform="translate(0,0)"/>
    <path d="" fill="#2272B0" transform="translate(0,0)"/>
    <path d="" fill="#4181AF" transform="translate(0,0)"/>
    <path d="" fill="#238BE1" transform="translate(0,0)"/>
    <path d="" fill="#2886D3" transform="translate(0,0)"/>
    <path d="" fill="#3E9AD8" transform="translate(0,0)"/>
    <path d="" fill="#248FE6" transform="translate(0,0)"/>
    <path d="" fill="#2584D5" transform="translate(0,0)"/>
    <path d="" fill="#287EE5" transform="translate(0,0)"/>
    <path d="M0 0 C2 1 2 1 2 1 Z " fill="#2083E7" transform="translate(216,35)"/>
    <path d="M0 0 C2 1 2 1 2 1 Z " fill="#258AD1" transform="translate(211,31)"/>
    <path d="M0 0 C2 1 2 1 2 1 Z " fill="#3787C4" transform="translate(206,28)"/>
    <path d="M0 0 C2 1 2 1 2 1 Z " fill="#3291DE" transform="translate(204,27)"/>
    <path d="M0 0 C2 1 2 1 2 1 Z " fill="#2B77B9" transform="translate(201,26)"/>
    <path d="M0 0 C2 1 2 1 2 1 Z " fill="#357EAA" transform="translate(53,26)"/>
    <path d="M0 0 C2 1 2 1 2 1 Z " fill="#2181D1" transform="translate(56,25)"/>
    <path d="" fill="#208CD7" transform="translate(0,0)"/>
    <path d="" fill="#258CDE" transform="translate(0,0)"/>
    <path d="" fill="#2F94E6" transform="translate(0,0)"/>
    <path d="" fill="#278DD8" transform="translate(0,0)"/>
    <path d="" fill="#2689D9" transform="translate(0,0)"/>
    <path d="" fill="#448DD0" transform="translate(0,0)"/>
    <path d="" fill="#3890D9" transform="translate(0,0)"/>
    <path d="" fill="#1B87E0" transform="translate(0,0)"/>
    <path d="" fill="#2293EC" transform="translate(0,0)"/>
    <path d="" fill="#1878D7" transform="translate(0,0)"/>
    <path d="" fill="#1787DA" transform="translate(0,0)"/>
    <path d="" fill="#0483D7" transform="translate(0,0)"/>
    <path d="" fill="#046DC2" transform="translate(0,0)"/>
    <path d="" fill="#3C9AE1" transform="translate(0,0)"/>
    <path d="" fill="#0263CB" transform="translate(0,0)"/>
    <path d="" fill="#4096E0" transform="translate(0,0)"/>
    <path d="" fill="#046DC2" transform="translate(0,0)"/>
    <path d="" fill="#0582D7" transform="translate(0,0)"/>
    <path d="" fill="#197DDB" transform="translate(0,0)"/>
    <path d="" fill="#1685D8" transform="translate(0,0)"/>
    <path d="" fill="#177DD4" transform="translate(0,0)"/>
    <path d="" fill="#2192EB" transform="translate(0,0)"/>
    <path d="" fill="#3E8FCC" transform="translate(0,0)"/>
    <path d="" fill="#3590D7" transform="translate(0,0)"/>
    <path d="" fill="#2689D5" transform="translate(0,0)"/>
    <path d="" fill="#2A92DE" transform="translate(0,0)"/>
    <path d="" fill="#2987D7" transform="translate(0,0)"/>
    <path d="" fill="#1C88D8" transform="translate(0,0)"/>
    <path d="" fill="#238AD9" transform="translate(0,0)"/>
    <path d="" fill="#1B80BE" transform="translate(0,0)"/>
    <path d="" fill="#218CD7" transform="translate(0,0)"/>
</svg>
